<svg xmlns="http://www.w3.org/2000/svg" version="1.1" xmlns:xlink="http://www.w3.org/1999/xlink" xmlns:svgjs="http://svgjs.dev/svgjs" viewBox="0 0 800 800"><defs><filter id="llleaves-blur-2" x="-100%" y="-100%" width="400%" height="400%"><feGaussianBlur in="SourceGraphic" stdDeviation="2"></feGaussianBlur></filter><filter id="llleaves-blur-3" x="-100%" y="-100%" width="400%" height="400%"><feGaussianBlur in="SourceGraphic" stdDeviation="4"></feGaussianBlur></filter><filter id="llleaves-blur-4" x="-100%" y="-100%" width="400%" height="400%"><feGaussianBlur in="SourceGraphic" stdDeviation="12"></feGaussianBlur></filter></defs><g fill="hsl(305, 77%, 40%)"><path d="M4 3H54C82 3 104 25 104 53H54C26 53 4 31 4 3Z " transform="matrix(-0.38293695524533,-0.05381827932857103,0.05381827932857103,-0.38293695524533,73.17168376204783,41.628421830612076)" filter="url(#llleaves-blur-2)" opacity="0.59"></path><path d="M630 179H680C708 179 730 201 730 229H680C652 229 630 207 630 179Z " transform="matrix(-0.285634414909377,0.16491110633775005,-0.16491110633775005,-0.285634414909377,907.8732678312774,150.12986833184289)" filter="url(#llleaves-blur-2)" opacity="0.51"></path><path d="M544 108H594C622 108 644 130 644 158H594C566 158 544 136 544 108Z " transform="matrix(-0.35988554373254783,0.05057861471349639,-0.05057861471349639,-0.35988554373254783,814.4989687340285,150.821080176612)" filter="url(#llleaves-blur-2)" opacity="0.56"></path><path d="M702 22H752C780 22 802 44 802 72H752C724 72 702 50 702 22Z " transform="matrix(-0.16726840690549286,0.23888404191300872,-0.23888404191300872,-0.16726840690549286,889.013391962842,-124.77918439402441)" filter="url(#llleaves-blur-3)" opacity="0.45"></path><path d="M379 651H429C457 651 479 673 479 701H429C401 701 379 679 379 651Z " transform="matrix(-0.34428767339792105,-0.25943937068947126,0.25943937068947126,-0.34428767339792105,401.3183973016255,1020.0379572427778)" opacity="0.66"></path><path d="M290 647H340C368 647 390 669 390 697H340C312 697 290 675 290 647Z " transform="matrix(-0.27995051396365367,-0.3583203177759304,0.3583203177759304,-0.27995051396365367,194.39192120221705,981.9556534273916)" opacity="0.70"></path><path d="M517 582H567C595 582 617 604 617 632H567C539 632 517 610 517 582Z " transform="matrix(-0.373292297857664,0.006515841296309036,-0.006515841296309036,-0.373292297857664,782.6118485521549,829.8939427845947)" filter="url(#llleaves-blur-2)" opacity="0.57"></path><path d="M577 735H627C655 735 677 757 677 785H627C599 785 577 763 577 735Z " transform="matrix(-0.3395378430235351,0.09097889083796164,-0.09097889083796164,-0.3395378430235351,909.0341846126073,961.0049961424846)" filter="url(#llleaves-blur-2)" opacity="0.54"></path><path d="M712 131H762C790 131 812 153 812 181H762C734 181 712 159 712 131Z " transform="matrix(-0.19681715360242474,0.226412235503394,-0.226412235503394,-0.19681715360242474,947.294979783577,14.177352508392033)" filter="url(#llleaves-blur-3)" opacity="0.46"></path><path d="M-21 62H29C57 62 79 84 79 112H29C1 112 -21 90 -21 62Z " transform="matrix(-0.3410386439495909,-0.26644859060115716,0.26644859060115716,-0.3410386439495909,15.709093292237462,124.39737115104796)" opacity="0.66"></path><path d="M228 299H278C306 299 328 321 328 349H278C250 349 228 327 228 299Z " transform="matrix(-0.22023538180500135,-0.4142025111663201,0.4142025111663201,-0.22023538180500135,205.02382252390265,510.50456180905746)" opacity="0.72"></path><path d="M250 731H300C328 731 350 753 350 781H300C272 781 250 759 250 731Z " transform="matrix(-0.25183271966580645,-0.38778838175551517,0.38778838175551517,-0.25183271966580645,82.38179929257248,1062.722050594004)" opacity="0.71"></path><path d="M628 591H678C706 591 728 613 728 641H678C650 641 628 619 628 591Z " transform="matrix(-0.285634414909377,0.16491110633775005,-0.16491110633775005,-0.285634414909377,973.2453748126117,680.1410694871818)" filter="url(#llleaves-blur-2)" opacity="0.51"></path><path d="M118 93H168C196 93 218 115 218 143H168C140 143 118 121 118 93Z " transform="matrix(-0.3000940260955855,-0.33328818100723545,0.33328818100723545,-0.3000940260955855,179.08779102520458,209.40350948849465)" opacity="0.69"></path><path d="M103 11H153C181 11 203 33 203 61H153C125 61 103 39 103 11Z " transform="matrix(-0.3852836018968872,-0.0960619909891779,0.0960619909891779,-0.3852836018968872,208.49015941461334,64.56769428963216)" filter="url(#llleaves-blur-2)" opacity="0.61"></path><path d="M309 468H359C387 468 409 490 409 518H359C331 518 309 496 309 468Z " transform="matrix(-0.29556171909491963,-0.34000486403072583,0.34000486403072583,-0.29556171909491963,297.48425918792833,760.7736737008261)" opacity="0.69"></path><path d="M75 731H125C153 731 175 753 175 781H125C97 781 75 759 75 731Z " transform="matrix(-0.13466675567560826,-0.4696387888483115,0.4696387888483115,-0.13466675567560826,-213.2135799098724,916.5129158967989)" opacity="0.75"></path><path d="M193 8H243C271 8 293 30 293 58H243C215 58 193 36 193 8Z " transform="matrix(-0.3850302181086832,-0.08889122998343273,0.08889122998343273,-0.3850302181086832,333.62893241095674,67.3065660835607)" filter="url(#llleaves-blur-2)" opacity="0.61"></path><path d="M344 380H394C422 380 444 402 444 430H394C366 430 344 408 344 380Z " transform="matrix(-0.3227688118633718,-0.3009867863973228,0.3009867863973228,-0.3227688118633718,399.27126338325274,654.3101626452108)" opacity="0.68"></path><path d="M201 641H251C279 641 301 663 301 691H251C223 691 201 669 201 641Z " transform="matrix(-0.20697024224178573,-0.42435188276093044,0.42435188276093044,-0.20697024224178573,20.33117688390854,910.3545039060228)" opacity="0.73"></path><path d="M710 237H760C788 237 810 259 810 287H760C732 287 710 265 710 237Z " transform="matrix(-0.18681510140256957,0.23069743751984056,-0.23069743751984056,-0.18681510140256957,962.4222056961511,135.6155040523944)" filter="url(#llleaves-blur-3)" opacity="0.45"></path><path d="M193 77H243C271 77 293 99 293 127H243C215 127 193 105 193 77Z " transform="matrix(-0.3372159104163854,-0.2730720599945069,0.2730720599945069,-0.3372159104163854,297.09011611174196,202.75253344113648)" opacity="0.67"></path><path d="M158 345H208C236 345 258 367 258 395H208C180 395 158 373 158 345Z " transform="matrix(-0.17196383060352732,-0.4479810946281057,0.4479810946281057,-0.17196383060352732,78.01547175313456,526.8066850059511)" opacity="0.74"></path><path d="M650 742H700C728 742 750 764 750 792H700C672 792 650 770 650 742Z " transform="matrix(-0.26761666549263996,0.1805097201237564,-0.1805097201237564,-0.26761666549263996,1025.782621179769,845.9051783462253)" filter="url(#llleaves-blur-2)" opacity="0.49"></path><path d="M254 558H304C332 558 354 580 354 608H304C276 608 254 586 254 558Z " transform="matrix(-0.25183271966580645,-0.38778838175551517,0.38778838175551517,-0.25183271966580645,154.47652021493982,847.7061436188417)" opacity="0.71"></path><path d="M108 650H158C186 650 208 672 208 700H158C130 700 108 678 108 650Z " transform="matrix(-0.15007746651152054,-0.46189094798347696,0.46189094798347696,-0.15007746651152054,-130.06415018002667,849.2810596766658)" opacity="0.75"></path><path d="M431 575H481C509 575 531 597 531 625H481C453 625 431 603 431 575Z " transform="matrix(-0.3750176372102085,-0.17487359617431308,0.17487359617431308,-0.3750176372102085,556.4593257935225,909.1247820859696)" opacity="0.63"></path><path d="M237 132H287C315 132 337 154 337 182H287C259 182 237 160 237 132Z " transform="matrix(-0.28493741261712435,-0.3518684006313418,0.3518684006313418,-0.28493741261712435,313.53369852199404,302.7214047620836)" opacity="0.70"></path><path d="M282 16H332C360 16 382 38 382 66H332C304 66 282 44 282 16Z " transform="matrix(-0.38482944828320603,-0.0748032671225872,0.0748032671225872,-0.38482944828320603,456.6964428779983,81.61269206431041)" filter="url(#llleaves-blur-2)" opacity="0.60"></path><path d="M485 494H535C563 494 585 516 585 544H535C507 544 485 522 485 494Z " transform="matrix(-0.38373132199209853,-0.0539299202942217,0.0539299202942217,-0.38373132199209853,712.3066286330717,747.0090634713079)" filter="url(#llleaves-blur-2)" opacity="0.59"></path><path d="M-2 465H48C76 465 98 487 98 515H48C20 515 -2 493 -2 465Z " transform="matrix(-0.11082939284138543,-0.4800548412540215,0.4800548412540215,-0.11082939284138543,-181.907061358084,567.349034872472)" opacity="0.76"></path><path d="M149 169H199C227 169 249 191 249 219H199C171 219 149 197 149 169Z " transform="matrix(-0.16485100137842043,-0.45292440386169197,0.45292440386169197,-0.16485100137842043,143.93801492513742,316.11305063589026)" opacity="0.74"></path><path d="M76 405H126C154 405 176 427 176 455H126C98 455 76 433 76 405Z " transform="matrix(-0.13466675567560826,-0.4696387888483115,0.4696387888483115,-0.13466675567560826,-58.9766679896473,547.0811923353988)" opacity="0.75"></path><path d="M-12 136H38C66 136 88 158 88 186H38C10 186 -12 164 -12 136Z " transform="matrix(-0.20047040545370737,-0.42991017185283203,0.42991017185283203,-0.20047040545370737,-23.597662261065075,209.6123218084545)" opacity="0.73"></path><path d="M718 446H768C796 446 818 468 818 496H768C740 496 718 474 718 446Z " transform="matrix(-0.16695927692083493,0.23844255854159532,-0.23844255854159532,-0.16695927692083493,1008.5311697482925,366.51393446976806)" filter="url(#llleaves-blur-3)" opacity="0.45"></path><path d="M72 575H122C150 575 172 597 172 625H122C94 625 72 603 72 575Z " transform="matrix(-0.13466675567560826,-0.4696387888483115,0.4696387888483115,-0.13466675567560826,-143.3539291165627,738.095985644859)" opacity="0.75"></path><path d="M450 82H500C528 82 550 104 550 132H500C472 132 450 110 450 82Z " transform="matrix(-0.3846851628593149,-0.08176735554284836,0.08176735554284836,-0.3846851628593149,683.5934743865727,189.04499019737085)" filter="url(#llleaves-blur-2)" opacity="0.60"></path><path d="M382 18H432C460 18 482 40 482 68H432C404 68 382 46 382 18Z " transform="matrix(-0.38152827741738277,-0.0333793990885947,0.0333793990885947,-0.38152827741738277,595.3849016834997,73.82561633522036)" filter="url(#llleaves-blur-2)" opacity="0.59"></path><path d="M492 14H542C570 14 592 36 592 64H542C514 64 492 42 492 14Z " transform="matrix(-0.35430141367459106,0.06247289853398146,-0.06247289853398146,-0.35430141367459106,736.4678092544536,18.957444127891097)" filter="url(#llleaves-blur-2)" opacity="0.55"></path><path d="M336 732H386C414 732 436 754 436 782H386C358 782 336 760 336 732Z " transform="matrix(-0.3227688118633718,-0.3009867863973228,0.3009867863973228,-0.3227688118633718,282.74176407648815,1117.5168901299392)" opacity="0.68"></path><path d="M162 425H212C240 425 262 447 262 475H212C184 475 162 453 162 425Z " transform="matrix(-0.17196383060352732,-0.4479810946281057,0.4479810946281057,-0.17196383060352732,46.86483950530021,622.3557158327457)" opacity="0.74"></path></g><g fill="none" stroke-width="3" stroke="hsl(305, 77%, 40%)"><path d="M717 728H767C795 728 817 750 817 778H767C739 778 717 756 717 728Z " transform="matrix(-0.16695927692083493,0.23844255854159532,-0.23844255854159532,-0.16695927692083493,1074.6050119801016,695.834893119985)" filter="url(#llleaves-blur-3)" opacity="0.45"></path><path d="M635 89H685C713 89 735 111 735 139H685C657 139 635 117 635 89Z " transform="matrix(-0.2683573393795054,0.18100931096864994,-0.18100931096864994,-0.2683573393795054,889.4598389253873,20.601358675738382)" filter="url(#llleaves-blur-2)" opacity="0.50"></path><path d="M467 656H517C545 656 567 678 567 706H517C489 706 467 684 467 656Z " transform="matrix(-0.38425645322820456,-0.08871259228512013,0.08871259228512013,-0.38425645322820456,655.247310972815,988.5430548598144)" filter="url(#llleaves-blur-2)" opacity="0.60"></path><path d="M650 417H700C728 417 750 439 750 467H700C672 467 650 445 650 417Z " transform="matrix(-0.26761666549263996,0.1805097201237564,-0.1805097201237564,-0.26761666549263996,967.1169621395484,433.92976206111734)" filter="url(#llleaves-blur-2)" opacity="0.49"></path><path d="M64 157H114C142 157 164 179 164 207H114C86 207 64 185 64 157Z " transform="matrix(-0.1723966481444433,-0.4491086228709536,0.4491086228709536,-0.1723966481444433,51.91544852595298,264.5745729695774)" opacity="0.74"></path><path d="M164 731H214C242 731 264 753 264 781H214C186 781 164 759 164 731Z " transform="matrix(-0.17196383060352732,-0.4479810946281057,0.4479810946281057,-0.17196383060352732,-87.8734477896931,981.8726101866812)" opacity="0.74"></path><path d="M-9 731H41C69 731 91 753 91 781H41C13 781 -9 759 -9 731Z " transform="matrix(-0.11082939284138543,-0.4800548412540215,0.4800548412540215,-0.11082939284138543,-317.37745488154343,859.4692694795023)" opacity="0.76"></path><path d="M627 274H677C705 274 727 296 727 324H677C649 324 627 302 627 274Z " transform="matrix(-0.285634414909377,0.16491110633775005,-0.16491110633775005,-0.285634414909377,919.6829196886356,272.75987106724693)" filter="url(#llleaves-blur-2)" opacity="0.51"></path><path d="M391 501H441C469 501 491 523 491 551H441C413 551 391 529 391 501Z " transform="matrix(-0.35692198436344086,-0.2317878468247416,0.2317878468247416,-0.35692198436344086,476.4821876744633,815.9594042248809)" opacity="0.65"></path><path d="M465 255H515C543 255 565 277 565 305H515C487 305 465 283 465 255Z " transform="matrix(-0.3835225853812447,-0.11725462138339503,0.11725462138339503,-0.3835225853812447,679.6828374839904,447.772453919197)" opacity="0.62"></path><path d="M711 637H761C789 637 811 659 811 687H761C733 687 711 665 711 637Z " transform="matrix(-0.18681510140256957,0.23069743751984056,-0.23069743751984056,-0.18681510140256957,1055.8879958054897,610.1108471759023)" filter="url(#llleaves-blur-3)" opacity="0.45"></path><path d="M571 451H621C649 451 671 473 671 501H621C593 501 571 479 571 451Z " transform="matrix(-0.3395378430235351,0.09097889083796164,-0.09097889083796164,-0.3395378430235351,875.158952556485,581.1221220688286)" filter="url(#llleaves-blur-2)" opacity="0.54"></path><path d="M223 216H273C301 216 323 238 323 266H273C245 266 223 244 223 216Z " transform="matrix(-0.22023538180500135,-0.4142025111663201,0.4142025111663201,-0.22023538180500135,233.3014540416822,407.1540125634107)" opacity="0.72"></path><path d="M713 550H763C791 550 813 572 813 600H763C735 600 713 578 713 550Z " transform="matrix(-0.18681510140256957,0.23069743751984056,-0.23069743751984056,-0.18681510140256957,1038.1909489440689,506.39653847883915)" filter="url(#llleaves-blur-3)" opacity="0.45"></path><path d="M68 236H118C146 236 168 258 168 286H118C90 286 68 264 68 236Z " transform="matrix(-0.13466675567560826,-0.4696387888483115,0.4696387888483115,-0.13466675567560826,11.314953280312466,351.56540031543454)" opacity="0.75"></path><path d="M548 210H598C626 210 648 232 648 260H598C570 260 548 238 548 210Z " transform="matrix(-0.36411226596283464,0.03826974126487643,-0.03826974126487643,-0.36411226596283464,824.732524243021,297.6810772248701)" filter="url(#llleaves-blur-2)" opacity="0.56"></path><path d="M146 258H196C224 258 246 280 246 308H196C168 308 146 286 146 258Z " transform="matrix(-0.16485100137842043,-0.45292440386169197,0.45292440386169197,-0.16485100137842043,100.13318997731156,418.42601654698456)" opacity="0.74"></path><path d="M378 127H428C456 127 478 149 478 177H428C400 177 378 155 378 127Z " transform="matrix(-0.3598815572567581,-0.22487895544714986,0.22487895544714986,-0.3598815572567581,547.8477052779257,302.95018963440737)" opacity="0.65"></path><path d="M218 479H268C296 479 318 501 318 529H268C240 529 218 507 218 479Z " transform="matrix(-0.22023538180500135,-0.4142025111663201,0.4142025111663201,-0.22023538180500135,118.26501669591505,726.0049054222944)" opacity="0.72"></path><path d="M-9 293H41C69 293 91 315 91 343H41C13 343 -9 321 -9 293Z " transform="matrix(-0.11082939284138543,-0.4800548412540215,0.4800548412540215,-0.11082939284138543,-107.11343441228206,372.92599541497543)" opacity="0.76"></path><path d="M73 320H123C151 320 173 342 173 370H123C95 370 73 348 73 320Z " transform="matrix(-0.13466675567560826,-0.4696387888483115,0.4696387888483115,-0.13466675567560826,-22.461371204567627,449.2256017364272)" opacity="0.75"></path><path d="M449 347H499C527 347 549 369 549 397H499C471 397 449 375 449 347Z " transform="matrix(-0.3804591827458204,-0.14604459705508732,0.14604459705508732,-0.3804591827458204,634.5205420856719,586.4070699119337)" opacity="0.63"></path><path d="M651 503H701C729 503 751 525 751 553H701C673 553 651 531 651 503Z " transform="matrix(-0.24554610168321214,0.198839312556343,-0.198839312556343,-0.24554610168321214,978.114974309681,518.2619835867396)" filter="url(#llleaves-blur-2)" opacity="0.48"></path><path d="M383 215H433C461 215 483 237 483 265H433C405 265 383 243 383 215Z " transform="matrix(-0.34428767339792105,-0.25943937068947126,0.25943937068947126,-0.34428767339792105,519.8111136158267,434.9662891240421)" opacity="0.66"></path><path d="M638 669H688C716 669 738 691 738 719H688C660 719 638 697 638 669Z " transform="matrix(-0.26761666549263996,0.1805097201237564,-0.1805097201237564,-0.26761666549263996,997.3940116248232,755.5352784067477)" filter="url(#llleaves-blur-2)" opacity="0.49"></path><path d="M501 734H551C579 734 601 756 601 784H551C523 784 501 762 501 734Z " transform="matrix(-0.3795610341102626,-0.026541493053312496,0.026541493053312496,-0.3795610341102626,739.9931365672903,1061.7111875620644)" filter="url(#llleaves-blur-2)" opacity="0.58"></path><path d="M386 301H436C464 301 486 323 486 351H436C408 351 386 329 386 301Z " transform="matrix(-0.35692198436344086,-0.2317878468247416,0.2317878468247416,-0.35692198436344086,516.0551471175944,543.416068118069)" opacity="0.65"></path><path d="M253 385H303C331 385 353 407 353 435H303C275 435 253 413 253 385Z " transform="matrix(-0.25183271966580645,-0.38778838175551517,0.38778838175551517,-0.25183271966580645,220.31207753897814,630.7512947349018)" opacity="0.71"></path><path d="M419 427H469C497 427 519 449 519 477H469C441 477 419 455 419 427Z " transform="matrix(-0.3750176372102085,-0.17487359617431308,0.17487359617431308,-0.3750176372102085,565.8404063807983,703.523688624767)" opacity="0.63"></path><path d="M303 190H353C381 190 403 212 403 240H353C325 240 303 218 303 190Z " transform="matrix(-0.29556171909491963,-0.34000486403072583,0.34000486403072583,-0.29556171909491963,384.2322410739006,398.5674866082539)" opacity="0.69"></path><path d="M338 567H388C416 567 438 589 438 617H388C360 617 338 595 338 567Z " transform="matrix(-0.3227688118633718,-0.3009867863973228,0.3009867863973228,-0.3227688118633718,335.05012145577314,899.8620097452774)" opacity="0.68"></path><path d="M161 555H211C239 555 261 577 261 605H211C183 605 161 583 161 555Z " transform="matrix(-0.17196383060352732,-0.4479810946281057,0.4479810946281057,-0.17196383060352732,-12.544666626957024,774.2630327165762)" opacity="0.74"></path><path d="M306 287H356C384 287 406 309 406 337H356C328 337 306 315 306 287Z " transform="matrix(-0.29556171909491963,-0.34000486403072583,0.34000486403072583,-0.29556171909491963,355.13845442020494,525.2569879525533)" opacity="0.69"></path><path d="M48 72H98C126 72 148 94 148 122H98C70 122 48 100 48 72Z " transform="matrix(-0.3447875607071322,-0.2598160627959223,0.2598160627959223,-0.3447875607071322,106.58702285809449,155.90636754259222)" opacity="0.66"></path><path d="M0 643H50C78 643 100 665 100 693H50C22 693 0 671 0 643Z " transform="matrix(-0.11072534700562031,-0.47960416922658516,0.47960416922658516,-0.11072534700562031,-264.8393176930779,765.9447402610836)" opacity="0.76"></path><path d="M420 734H470C498 734 520 756 520 784H470C442 784 420 762 420 734Z " transform="matrix(-0.3750176372102085,-0.17487359617431308,0.17487359617431308,-0.3750176372102085,513.5292299924944,1125.8289768444752)" opacity="0.63"></path><path d="M556 653H606C634 653 656 675 656 703H606C578 703 556 681 556 653Z " transform="matrix(-0.3522353416684111,0.06846761460273569,-0.06846761460273569,-0.3522353416684111,865.875659751712,875.3241872019248)" filter="url(#llleaves-blur-2)" opacity="0.55"></path><path d="M308 90H358C386 90 408 112 408 140H358C330 140 308 118 308 90Z " transform="matrix(-0.36479698581258047,-0.2106156379584575,0.2106156379584575,-0.36479698581258047,464.3765225556813,232.35205175757454)" opacity="0.65"></path><path d="M-11 213H39C67 213 89 235 89 263H39C11 263 -11 241 -11 213Z " transform="matrix(-0.11082939284138543,-0.4800548412540215,0.4800548412540215,-0.11082939284138543,-70.9307058976431,283.09953430515657)" opacity="0.76"></path><path d="M-9 550H41C69 550 91 572 91 600H41C13 600 -9 578 -9 550Z " transform="matrix(-0.11082939284138543,-0.4800548412540215,0.4800548412540215,-0.11082939284138543,-230.48752861456552,658.4091493752115)" opacity="0.76"></path><path d="M466 167H516C544 167 566 189 566 217H516C488 217 466 195 466 167Z " transform="matrix(-0.3835225853812447,-0.11725462138339503,0.11725462138339503,-0.3835225853812447,691.3847667511104,326.1397210270308)" opacity="0.62"></path><path d="M-9 378H41C69 378 91 400 91 428H41C13 428 -9 406 -9 378Z " transform="matrix(-0.11082939284138543,-0.4800548412540215,0.4800548412540215,-0.11082939284138543,-147.9180959188739,467.3464938064932)" opacity="0.76"></path><path d="M536 306H586C614 306 636 328 636 356H586C558 356 536 334 536 306Z " transform="matrix(-0.36411226596283464,0.03826974126487643,-0.03826974126487643,-0.36411226596283464,812.0370722128952,429.0950916524807)" filter="url(#llleaves-blur-2)" opacity="0.56"></path><path d="M572 530H622C650 530 672 552 672 580H622C594 580 572 558 572 530Z " transform="matrix(-0.3395378430235351,0.09097889083796164,-0.09097889083796164,-0.3395378430235351,883.6858227757076,686.8546327768498)" filter="url(#llleaves-blur-2)" opacity="0.54"></path><path d="M94 490H144C172 490 194 512 194 540H144C116 540 94 518 94 490Z " transform="matrix(-0.14244499597759047,-0.465916588083264,0.465916588083264,-0.14244499597759047,-75.43496344210794,655.4511616124491)" opacity="0.75"></path><path d="M706 340H756C784 340 806 362 806 390H756C728 390 706 368 706 340Z " transform="matrix(-0.18681510140256957,0.23069743751984056,-0.23069743751984056,-0.18681510140256957,981.4367813550845,258.7802492469384)" filter="url(#llleaves-blur-3)" opacity="0.45"></path><path d="M592 15H642C670 15 692 37 692 65H642C614 65 592 43 592 15Z " transform="matrix(-0.28561497914737904,0.1648998850953286,-0.1648998850953286,-0.28561497914737904,831.9608120164304,-54.44112706530581)" filter="url(#llleaves-blur-2)" opacity="0.51"></path><path d="M511 400H561C589 400 611 422 611 450H561C533 450 511 428 511 400Z " transform="matrix(-0.3795610341102626,-0.026541493053312496,0.026541493053312496,-0.3795610341102626,762.6536055881996,601.20321709977)" filter="url(#llleaves-blur-2)" opacity="0.58"></path><path d="M602 359H652C680 359 702 381 702 409H652C624 409 602 387 602 359Z " transform="matrix(-0.3054016224346633,0.14241111535424494,-0.14241111535424494,-0.3054016224346633,905.8077261234307,408.422175803943)" filter="url(#llleaves-blur-2)" opacity="0.52"></path></g></svg>